<svg width="24" height="24" viewBox="0 0 24 24" fill="none" xmlns="http://www.w3.org/2000/svg">
<path d="M6.63478 20.7733V17.7156C6.63478 16.9351 7.27217 16.3023 8.05844 16.3023H10.9326C11.3102 16.3023 11.6723 16.4512 11.9393 16.7163C12.2063 16.9813 12.3563 17.3408 12.3563 17.7156V20.7733C12.3539 21.0978 12.4821 21.4099 12.7124 21.6402C12.9427 21.8705 13.256 22 13.5829 22H15.5438C16.4596 22.0024 17.3388 21.6428 17.9872 21.0008C18.6356 20.3588 19 19.487 19 18.5778V9.86686C19 9.13246 18.6721 8.43584 18.1046 7.96467L11.434 2.67587C10.2737 1.74856 8.61111 1.7785 7.48539 2.74698L0.967012 7.96467C0.372741 8.42195 0.0175523 9.12064 0 9.86686V18.5689C0 20.4639 1.54738 22 3.45617 22H5.37229C6.05123 22 6.603 21.4562 6.60792 20.7822L6.63478 20.7733Z" fill="#41A788" fill-opacity="0.76"/>
</svg>
