<svg width="274" height="143" viewBox="0 0 274 143" fill="none" xmlns="http://www.w3.org/2000/svg">
<path d="M1 11C1 5.47715 5.47715 1 11 1H263C268.523 1 273 5.47715 273 11V132C273 137.523 268.523 142 263 142H11C5.47715 142 1 137.523 1 132V11Z" fill="#EDEDED"/>
<path d="M263 0.5H11C5.20101 0.5 0.5 5.20101 0.5 11V132C0.5 137.799 5.201 142.5 11 142.5H263C268.799 142.5 273.5 137.799 273.5 132V11C273.5 5.20101 268.799 0.5 263 0.5Z" stroke="black" stroke-opacity="0.28"/>
<path fill-rule="evenodd" clip-rule="evenodd" d="M141.21 63.8999V72.0499C141.21 75.0699 139.32 77.1999 136.3 77.1999H127.65C124.63 77.1999 122.75 75.0699 122.75 72.0499V63.8999C122.75 60.8799 124.64 58.7509 127.65 58.7509H136.3C139.32 58.7509 141.21 60.8799 141.21 63.8999Z" stroke="#ADACAD" stroke-width="1.5" stroke-linecap="round" stroke-linejoin="round"/>
<path d="M125.281 72.4322L126.81 70.8192C127.361 70.2372 128.286 70.2342 128.842 70.8112L129.727 71.7142C130.324 72.3232 131.317 72.2792 131.858 71.6202L134.087 68.9092C134.727 68.1302 135.901 68.0822 136.602 68.8052L138.678 70.9472" stroke="#ADACAD" stroke-width="1.5" stroke-linecap="round" stroke-linejoin="round"/>
<path fill-rule="evenodd" clip-rule="evenodd" d="M130.314 65.1342C130.314 66.1022 129.528 66.8882 128.56 66.8882C127.592 66.8882 126.807 66.1022 126.807 65.1342C126.807 64.1662 127.592 63.3802 128.56 63.3802C129.528 63.3802 130.314 64.1662 130.314 65.1342Z" stroke="#ADACAD" stroke-width="1.5" stroke-linecap="round" stroke-linejoin="round"/>
<path d="M85.67 99.09C85.1967 99.09 84.78 99.03 84.42 98.91C84.06 98.7833 83.7567 98.5967 83.51 98.35C83.27 98.1033 83.0867 97.7967 82.96 97.43C82.8333 97.0633 82.77 96.64 82.77 96.16V92.4C82.77 92.2267 82.8133 92.0967 82.9 92.01C82.9933 91.9233 83.1233 91.88 83.29 91.88C83.4567 91.88 83.5833 91.9233 83.67 92.01C83.7633 92.0967 83.81 92.2267 83.81 92.4V96.14C83.81 96.8267 83.9667 97.34 84.28 97.68C84.6 98.02 85.0633 98.19 85.67 98.19C86.2833 98.19 86.7467 98.02 87.06 97.68C87.3733 97.34 87.53 96.8267 87.53 96.14V92.4C87.53 92.2267 87.5733 92.0967 87.66 92.01C87.7533 91.9233 87.88 91.88 88.04 91.88C88.2067 91.88 88.3333 91.9233 88.42 92.01C88.5067 92.0967 88.55 92.2267 88.55 92.4V96.16C88.55 96.8 88.44 97.34 88.22 97.78C88.0067 98.2133 87.6867 98.54 87.26 98.76C86.8333 98.98 86.3033 99.09 85.67 99.09ZM90.544 100.87C90.384 100.87 90.2607 100.827 90.174 100.74C90.0873 100.653 90.044 100.527 90.044 100.36V94.56C90.044 94.3933 90.0873 94.2667 90.174 94.18C90.2607 94.0933 90.3807 94.05 90.534 94.05C90.694 94.05 90.8173 94.0933 90.904 94.18C90.9907 94.2667 91.034 94.3933 91.034 94.56V95.43L90.924 95.22C91.0307 94.86 91.2407 94.5733 91.554 94.36C91.8673 94.14 92.2373 94.03 92.664 94.03C93.0973 94.03 93.474 94.1333 93.794 94.34C94.1207 94.5467 94.3707 94.8367 94.544 95.21C94.724 95.5833 94.814 96.0333 94.814 96.56C94.814 97.0733 94.724 97.5233 94.544 97.91C94.3707 98.29 94.124 98.5833 93.804 98.79C93.484 98.99 93.104 99.09 92.664 99.09C92.244 99.09 91.8773 98.9833 91.564 98.77C91.2507 98.5567 91.0407 98.2733 90.934 97.92H91.054V100.36C91.054 100.527 91.0073 100.653 90.914 100.74C90.8273 100.827 90.704 100.87 90.544 100.87ZM92.414 98.31C92.694 98.31 92.9373 98.2433 93.144 98.11C93.3507 97.9767 93.5107 97.78 93.624 97.52C93.7373 97.26 93.794 96.94 93.794 96.56C93.794 95.9867 93.6673 95.5533 93.414 95.26C93.1673 94.9667 92.834 94.82 92.414 94.82C92.1407 94.82 91.8973 94.8867 91.684 95.02C91.4773 95.1467 91.3173 95.34 91.204 95.6C91.0907 95.86 91.034 96.18 91.034 96.56C91.034 97.1267 91.1607 97.56 91.414 97.86C91.6673 98.16 92.0007 98.31 92.414 98.31ZM97.5222 99.09C97.0022 99.09 96.6089 98.94 96.3422 98.64C96.0822 98.3333 95.9522 97.8933 95.9522 97.32V92.39C95.9522 92.2233 95.9955 92.0967 96.0822 92.01C96.1689 91.9233 96.2922 91.88 96.4522 91.88C96.6122 91.88 96.7355 91.9233 96.8222 92.01C96.9155 92.0967 96.9622 92.2233 96.9622 92.39V97.26C96.9622 97.5933 97.0289 97.8433 97.1622 98.01C97.3022 98.17 97.5022 98.25 97.7622 98.25C97.8222 98.25 97.8755 98.25 97.9222 98.25C97.9689 98.2433 98.0155 98.2367 98.0622 98.23C98.1422 98.2233 98.1989 98.2467 98.2322 98.3C98.2655 98.3467 98.2822 98.4467 98.2822 98.6C98.2822 98.74 98.2522 98.85 98.1922 98.93C98.1322 99.0033 98.0355 99.05 97.9022 99.07C97.8422 99.0767 97.7789 99.08 97.7122 99.08C97.6455 99.0867 97.5822 99.09 97.5222 99.09ZM101.08 99.09C100.587 99.09 100.16 98.9867 99.8 98.78C99.4467 98.5733 99.17 98.28 98.97 97.9C98.77 97.52 98.67 97.0733 98.67 96.56C98.67 96.1667 98.7267 95.8167 98.84 95.51C98.9533 95.2033 99.1133 94.94 99.32 94.72C99.5333 94.4933 99.7867 94.3233 100.08 94.21C100.38 94.09 100.713 94.03 101.08 94.03C101.567 94.03 101.987 94.1333 102.34 94.34C102.7 94.5467 102.98 94.84 103.18 95.22C103.38 95.5933 103.48 96.04 103.48 96.56C103.48 96.9467 103.423 97.2967 103.31 97.61C103.197 97.9233 103.033 98.19 102.82 98.41C102.613 98.63 102.36 98.8 102.06 98.92C101.767 99.0333 101.44 99.09 101.08 99.09ZM101.08 98.31C101.353 98.31 101.593 98.2433 101.8 98.11C102.007 97.9767 102.167 97.78 102.28 97.52C102.4 97.26 102.46 96.94 102.46 96.56C102.46 95.9867 102.333 95.5533 102.08 95.26C101.827 94.9667 101.493 94.82 101.08 94.82C100.8 94.82 100.557 94.8867 100.35 95.02C100.143 95.1467 99.98 95.34 99.86 95.6C99.7467 95.86 99.69 96.18 99.69 96.56C99.69 97.1267 99.8167 97.56 100.07 97.86C100.323 98.16 100.66 98.31 101.08 98.31ZM106.174 99.09C105.834 99.09 105.528 99.0233 105.254 98.89C104.988 98.7567 104.778 98.5767 104.624 98.35C104.471 98.1233 104.394 97.8667 104.394 97.58C104.394 97.22 104.484 96.9367 104.664 96.73C104.851 96.5167 105.154 96.3667 105.574 96.28C106.001 96.1867 106.574 96.14 107.294 96.14H107.764V96.76H107.304C106.824 96.76 106.444 96.7833 106.164 96.83C105.884 96.8767 105.684 96.9567 105.564 97.07C105.451 97.1767 105.394 97.3267 105.394 97.52C105.394 97.7733 105.481 97.98 105.654 98.14C105.828 98.2933 106.068 98.37 106.374 98.37C106.621 98.37 106.838 98.3133 107.024 98.2C107.211 98.08 107.358 97.92 107.464 97.72C107.578 97.52 107.634 97.29 107.634 97.03V95.88C107.634 95.5 107.554 95.2267 107.394 95.06C107.234 94.8933 106.971 94.81 106.604 94.81C106.391 94.81 106.168 94.8367 105.934 94.89C105.708 94.9433 105.471 95.0333 105.224 95.16C105.111 95.2133 105.014 95.23 104.934 95.21C104.854 95.19 104.791 95.1467 104.744 95.08C104.698 95.0067 104.671 94.93 104.664 94.85C104.664 94.7633 104.684 94.68 104.724 94.6C104.771 94.52 104.848 94.46 104.954 94.42C105.248 94.28 105.538 94.18 105.824 94.12C106.111 94.06 106.381 94.03 106.634 94.03C107.081 94.03 107.448 94.1 107.734 94.24C108.028 94.38 108.244 94.5933 108.384 94.88C108.524 95.1667 108.594 95.5367 108.594 95.99V98.56C108.594 98.72 108.554 98.8467 108.474 98.94C108.394 99.0267 108.278 99.07 108.124 99.07C107.978 99.07 107.861 99.0267 107.774 98.94C107.688 98.8467 107.644 98.72 107.644 98.56V97.91H107.734C107.681 98.1567 107.581 98.37 107.434 98.55C107.294 98.7233 107.118 98.8567 106.904 98.95C106.691 99.0433 106.448 99.09 106.174 99.09ZM111.845 99.09C111.419 99.09 111.042 98.99 110.715 98.79C110.395 98.5833 110.145 98.29 109.965 97.91C109.785 97.5233 109.695 97.0733 109.695 96.56C109.695 96.0333 109.785 95.5833 109.965 95.21C110.145 94.8367 110.395 94.5467 110.715 94.34C111.042 94.1333 111.419 94.03 111.845 94.03C112.272 94.03 112.639 94.1367 112.945 94.35C113.259 94.5567 113.469 94.8367 113.575 95.19H113.465V92.39C113.465 92.2233 113.509 92.0967 113.595 92.01C113.682 91.9233 113.805 91.88 113.965 91.88C114.125 91.88 114.249 91.9233 114.335 92.01C114.429 92.0967 114.475 92.2233 114.475 92.39V98.56C114.475 98.72 114.432 98.8467 114.345 98.94C114.259 99.0267 114.135 99.07 113.975 99.07C113.815 99.07 113.692 99.0267 113.605 98.94C113.519 98.8467 113.475 98.72 113.475 98.56V97.68L113.585 97.9C113.479 98.26 113.269 98.55 112.955 98.77C112.649 98.9833 112.279 99.09 111.845 99.09ZM112.105 98.31C112.379 98.31 112.619 98.2433 112.825 98.11C113.032 97.9767 113.192 97.78 113.305 97.52C113.425 97.26 113.485 96.94 113.485 96.56C113.485 95.9867 113.359 95.5533 113.105 95.26C112.852 94.9667 112.519 94.82 112.105 94.82C111.825 94.82 111.582 94.8867 111.375 95.02C111.169 95.1467 111.005 95.34 110.885 95.6C110.772 95.86 110.715 96.18 110.715 96.56C110.715 97.1267 110.842 97.56 111.095 97.86C111.349 98.16 111.685 98.31 112.105 98.31ZM120.74 100.89C120.38 100.89 120.03 100.853 119.69 100.78C119.357 100.707 119.054 100.587 118.78 100.42C118.68 100.367 118.614 100.3 118.58 100.22C118.547 100.147 118.537 100.07 118.55 99.99C118.57 99.91 118.607 99.84 118.66 99.78C118.714 99.72 118.777 99.68 118.85 99.66C118.93 99.64 119.014 99.6533 119.1 99.7C119.394 99.86 119.67 99.9667 119.93 100.02C120.197 100.08 120.444 100.11 120.67 100.11C121.137 100.11 121.487 99.99 121.72 99.75C121.954 99.5167 122.07 99.17 122.07 98.71V97.69H122.16C122.06 98.0567 121.85 98.3467 121.53 98.56C121.21 98.7733 120.84 98.88 120.42 98.88C119.98 98.88 119.597 98.78 119.27 98.58C118.944 98.3733 118.69 98.09 118.51 97.73C118.33 97.3633 118.24 96.9367 118.24 96.45C118.24 96.0833 118.29 95.7533 118.39 95.46C118.497 95.1667 118.644 94.9133 118.83 94.7C119.024 94.4867 119.254 94.3233 119.52 94.21C119.794 94.09 120.094 94.03 120.42 94.03C120.847 94.03 121.217 94.1367 121.53 94.35C121.85 94.5633 122.057 94.8533 122.15 95.22L122.05 95.39V94.56C122.05 94.3933 122.094 94.2667 122.18 94.18C122.274 94.0933 122.397 94.05 122.55 94.05C122.71 94.05 122.834 94.0933 122.92 94.18C123.007 94.2667 123.05 94.3933 123.05 94.56V98.59C123.05 99.35 122.854 99.9233 122.46 100.31C122.067 100.697 121.494 100.89 120.74 100.89ZM120.66 98.09C120.954 98.09 121.204 98.0233 121.41 97.89C121.617 97.7567 121.777 97.5667 121.89 97.32C122.004 97.0733 122.06 96.7833 122.06 96.45C122.06 95.95 121.934 95.5533 121.68 95.26C121.434 94.9667 121.094 94.82 120.66 94.82C120.374 94.82 120.127 94.8867 119.92 95.02C119.714 95.1533 119.55 95.3433 119.43 95.59C119.317 95.83 119.26 96.1167 119.26 96.45C119.26 96.9567 119.387 97.3567 119.64 97.65C119.894 97.9433 120.234 98.09 120.66 98.09ZM126.028 99.09C125.688 99.09 125.381 99.0233 125.108 98.89C124.841 98.7567 124.631 98.5767 124.478 98.35C124.324 98.1233 124.248 97.8667 124.248 97.58C124.248 97.22 124.338 96.9367 124.518 96.73C124.704 96.5167 125.008 96.3667 125.428 96.28C125.854 96.1867 126.428 96.14 127.148 96.14H127.618V96.76H127.158C126.678 96.76 126.298 96.7833 126.018 96.83C125.738 96.8767 125.538 96.9567 125.418 97.07C125.304 97.1767 125.248 97.3267 125.248 97.52C125.248 97.7733 125.334 97.98 125.508 98.14C125.681 98.2933 125.921 98.37 126.228 98.37C126.474 98.37 126.691 98.3133 126.878 98.2C127.064 98.08 127.211 97.92 127.318 97.72C127.431 97.52 127.488 97.29 127.488 97.03V95.88C127.488 95.5 127.408 95.2267 127.248 95.06C127.088 94.8933 126.824 94.81 126.458 94.81C126.244 94.81 126.021 94.8367 125.788 94.89C125.561 94.9433 125.324 95.0333 125.078 95.16C124.964 95.2133 124.868 95.23 124.788 95.21C124.708 95.19 124.644 95.1467 124.598 95.08C124.551 95.0067 124.524 94.93 124.518 94.85C124.518 94.7633 124.538 94.68 124.578 94.6C124.624 94.52 124.701 94.46 124.808 94.42C125.101 94.28 125.391 94.18 125.678 94.12C125.964 94.06 126.234 94.03 126.488 94.03C126.934 94.03 127.301 94.1 127.588 94.24C127.881 94.38 128.098 94.5933 128.238 94.88C128.378 95.1667 128.448 95.5367 128.448 95.99V98.56C128.448 98.72 128.408 98.8467 128.328 98.94C128.248 99.0267 128.131 99.07 127.978 99.07C127.831 99.07 127.714 99.0267 127.628 98.94C127.541 98.8467 127.498 98.72 127.498 98.56V97.91H127.588C127.534 98.1567 127.434 98.37 127.288 98.55C127.148 98.7233 126.971 98.8567 126.758 98.95C126.544 99.0433 126.301 99.09 126.028 99.09ZM130.359 99.07C130.199 99.07 130.076 99.0267 129.989 98.94C129.902 98.8467 129.859 98.72 129.859 98.56V94.56C129.859 94.3933 129.902 94.2667 129.989 94.18C130.076 94.0933 130.196 94.05 130.349 94.05C130.509 94.05 130.629 94.0933 130.709 94.18C130.796 94.2667 130.839 94.3933 130.839 94.56V95.38L130.729 95.16C130.862 94.8067 131.069 94.53 131.349 94.33C131.629 94.13 131.966 94.03 132.359 94.03C132.766 94.03 133.096 94.1267 133.349 94.32C133.602 94.5133 133.776 94.81 133.869 95.21H133.729C133.856 94.8433 134.072 94.5567 134.379 94.35C134.686 94.1367 135.042 94.03 135.449 94.03C135.822 94.03 136.129 94.1033 136.369 94.25C136.609 94.39 136.789 94.6067 136.909 94.9C137.029 95.1867 137.089 95.55 137.089 95.99V98.56C137.089 98.72 137.042 98.8467 136.949 98.94C136.862 99.0267 136.739 99.07 136.579 99.07C136.419 99.07 136.296 99.0267 136.209 98.94C136.122 98.8467 136.079 98.72 136.079 98.56V96.04C136.079 95.6267 136.006 95.3233 135.859 95.13C135.719 94.9367 135.486 94.84 135.159 94.84C134.792 94.84 134.502 94.9667 134.289 95.22C134.076 95.4733 133.969 95.8233 133.969 96.27V98.56C133.969 98.72 133.926 98.8467 133.839 98.94C133.752 99.0267 133.629 99.07 133.469 99.07C133.309 99.07 133.182 99.0267 133.089 98.94C133.002 98.8467 132.959 98.72 132.959 98.56V96.04C132.959 95.6267 132.889 95.3233 132.749 95.13C132.609 94.9367 132.376 94.84 132.049 94.84C131.682 94.84 131.392 94.9667 131.179 95.22C130.972 95.4733 130.869 95.8233 130.869 96.27V98.56C130.869 98.9 130.699 99.07 130.359 99.07ZM141.121 99.09C140.694 99.09 140.324 98.9833 140.011 98.77C139.698 98.55 139.488 98.26 139.381 97.9L139.491 97.72V98.56C139.491 98.72 139.448 98.8467 139.361 98.94C139.274 99.0267 139.154 99.07 139.001 99.07C138.841 99.07 138.718 99.0267 138.631 98.94C138.544 98.8467 138.501 98.72 138.501 98.56V92.39C138.501 92.2233 138.544 92.0967 138.631 92.01C138.718 91.9233 138.841 91.88 139.001 91.88C139.161 91.88 139.284 91.9233 139.371 92.01C139.464 92.0967 139.511 92.2233 139.511 92.39V95.19H139.391C139.498 94.8367 139.708 94.5567 140.021 94.35C140.334 94.1367 140.701 94.03 141.121 94.03C141.561 94.03 141.941 94.1333 142.261 94.34C142.581 94.5467 142.828 94.8367 143.001 95.21C143.181 95.5833 143.271 96.0333 143.271 96.56C143.271 97.0733 143.181 97.5233 143.001 97.91C142.828 98.29 142.578 98.5833 142.251 98.79C141.931 98.99 141.554 99.09 141.121 99.09ZM140.871 98.31C141.151 98.31 141.394 98.2433 141.601 98.11C141.808 97.9767 141.968 97.78 142.081 97.52C142.194 97.26 142.251 96.94 142.251 96.56C142.251 95.9867 142.124 95.5533 141.871 95.26C141.624 94.9667 141.291 94.82 140.871 94.82C140.598 94.82 140.354 94.8867 140.141 95.02C139.934 95.1467 139.774 95.34 139.661 95.6C139.548 95.86 139.491 96.18 139.491 96.56C139.491 97.1267 139.618 97.56 139.871 97.86C140.124 98.16 140.458 98.31 140.871 98.31ZM145.969 99.09C145.629 99.09 145.323 99.0233 145.049 98.89C144.783 98.7567 144.573 98.5767 144.419 98.35C144.266 98.1233 144.189 97.8667 144.189 97.58C144.189 97.22 144.279 96.9367 144.459 96.73C144.646 96.5167 144.949 96.3667 145.369 96.28C145.796 96.1867 146.369 96.14 147.089 96.14H147.559V96.76H147.099C146.619 96.76 146.239 96.7833 145.959 96.83C145.679 96.8767 145.479 96.9567 145.359 97.07C145.246 97.1767 145.189 97.3267 145.189 97.52C145.189 97.7733 145.276 97.98 145.449 98.14C145.623 98.2933 145.863 98.37 146.169 98.37C146.416 98.37 146.633 98.3133 146.819 98.2C147.006 98.08 147.153 97.92 147.259 97.72C147.373 97.52 147.429 97.29 147.429 97.03V95.88C147.429 95.5 147.349 95.2267 147.189 95.06C147.029 94.8933 146.766 94.81 146.399 94.81C146.186 94.81 145.963 94.8367 145.729 94.89C145.503 94.9433 145.266 95.0333 145.019 95.16C144.906 95.2133 144.809 95.23 144.729 95.21C144.649 95.19 144.586 95.1467 144.539 95.08C144.493 95.0067 144.466 94.93 144.459 94.85C144.459 94.7633 144.479 94.68 144.519 94.6C144.566 94.52 144.643 94.46 144.749 94.42C145.043 94.28 145.333 94.18 145.619 94.12C145.906 94.06 146.176 94.03 146.429 94.03C146.876 94.03 147.243 94.1 147.529 94.24C147.823 94.38 148.039 94.5933 148.179 94.88C148.319 95.1667 148.389 95.5367 148.389 95.99V98.56C148.389 98.72 148.349 98.8467 148.269 98.94C148.189 99.0267 148.073 99.07 147.919 99.07C147.773 99.07 147.656 99.0267 147.569 98.94C147.483 98.8467 147.439 98.72 147.439 98.56V97.91H147.529C147.476 98.1567 147.376 98.37 147.229 98.55C147.089 98.7233 146.913 98.8567 146.699 98.95C146.486 99.0433 146.243 99.09 145.969 99.09ZM150.29 99.07C150.124 99.07 149.997 99.0267 149.91 98.94C149.824 98.8467 149.78 98.72 149.78 98.56V94.56C149.78 94.3933 149.824 94.2667 149.91 94.18C149.997 94.0933 150.117 94.05 150.27 94.05C150.43 94.05 150.55 94.0933 150.63 94.18C150.717 94.2667 150.76 94.3933 150.76 94.56V95.29H150.66C150.767 94.89 150.964 94.5867 151.25 94.38C151.537 94.1733 151.904 94.0533 152.35 94.02C152.47 94.0133 152.564 94.0433 152.63 94.11C152.704 94.1767 152.744 94.28 152.75 94.42C152.764 94.56 152.734 94.6733 152.66 94.76C152.587 94.84 152.474 94.8867 152.32 94.9L152.13 94.92C151.697 94.96 151.367 95.0967 151.14 95.33C150.914 95.5633 150.8 95.8833 150.8 96.29V98.56C150.8 98.72 150.757 98.8467 150.67 98.94C150.59 99.0267 150.464 99.07 150.29 99.07ZM158.007 99.09C157.581 99.09 157.204 98.99 156.878 98.79C156.558 98.5833 156.308 98.29 156.128 97.91C155.948 97.5233 155.858 97.0733 155.858 96.56C155.858 96.0333 155.948 95.5833 156.128 95.21C156.308 94.8367 156.558 94.5467 156.878 94.34C157.204 94.1333 157.581 94.03 158.007 94.03C158.434 94.03 158.801 94.1367 159.108 94.35C159.421 94.5567 159.631 94.8367 159.738 95.19H159.628V92.39C159.628 92.2233 159.671 92.0967 159.758 92.01C159.844 91.9233 159.968 91.88 160.128 91.88C160.288 91.88 160.411 91.9233 160.498 92.01C160.591 92.0967 160.638 92.2233 160.638 92.39V98.56C160.638 98.72 160.594 98.8467 160.508 98.94C160.421 99.0267 160.298 99.07 160.138 99.07C159.978 99.07 159.854 99.0267 159.768 98.94C159.681 98.8467 159.638 98.72 159.638 98.56V97.68L159.748 97.9C159.641 98.26 159.431 98.55 159.118 98.77C158.811 98.9833 158.441 99.09 158.007 99.09ZM158.268 98.31C158.541 98.31 158.781 98.2433 158.988 98.11C159.194 97.9767 159.354 97.78 159.468 97.52C159.588 97.26 159.648 96.94 159.648 96.56C159.648 95.9867 159.521 95.5533 159.268 95.26C159.014 94.9667 158.681 94.82 158.268 94.82C157.988 94.82 157.744 94.8867 157.538 95.02C157.331 95.1467 157.168 95.34 157.048 95.6C156.934 95.86 156.878 96.18 156.878 96.56C156.878 97.1267 157.004 97.56 157.258 97.86C157.511 98.16 157.848 98.31 158.268 98.31ZM162.556 99.06C162.396 99.06 162.272 99.0133 162.186 98.92C162.099 98.82 162.056 98.6833 162.056 98.51V94.61C162.056 94.4367 162.099 94.3033 162.186 94.21C162.272 94.1167 162.396 94.07 162.556 94.07C162.716 94.07 162.839 94.1167 162.926 94.21C163.019 94.3033 163.066 94.4367 163.066 94.61V98.51C163.066 98.6833 163.022 98.82 162.936 98.92C162.849 99.0133 162.722 99.06 162.556 99.06ZM162.556 93.03C162.356 93.03 162.199 92.98 162.086 92.88C161.979 92.78 161.926 92.64 161.926 92.46C161.926 92.2733 161.979 92.1333 162.086 92.04C162.199 91.94 162.356 91.89 162.556 91.89C162.756 91.89 162.909 91.94 163.016 92.04C163.129 92.1333 163.186 92.2733 163.186 92.46C163.186 92.64 163.129 92.78 163.016 92.88C162.909 92.98 162.756 93.03 162.556 93.03ZM168.834 99.09C168.541 99.09 168.237 99.0567 167.924 98.99C167.617 98.9233 167.334 98.81 167.074 98.65C166.987 98.59 166.927 98.5233 166.894 98.45C166.861 98.3767 166.847 98.3033 166.854 98.23C166.867 98.15 166.897 98.0833 166.944 98.03C166.997 97.97 167.061 97.9333 167.134 97.92C167.214 97.9067 167.297 97.9233 167.384 97.97C167.644 98.1167 167.894 98.22 168.134 98.28C168.374 98.3333 168.611 98.36 168.844 98.36C169.197 98.36 169.464 98.2967 169.644 98.17C169.824 98.0433 169.914 97.8733 169.914 97.66C169.914 97.4867 169.854 97.3533 169.734 97.26C169.614 97.16 169.434 97.0833 169.194 97.03L168.244 96.84C167.831 96.7533 167.517 96.6 167.304 96.38C167.091 96.16 166.984 95.88 166.984 95.54C166.984 95.2333 167.067 94.9667 167.234 94.74C167.401 94.5133 167.634 94.34 167.934 94.22C168.234 94.0933 168.581 94.03 168.974 94.03C169.267 94.03 169.544 94.0667 169.804 94.14C170.064 94.2133 170.304 94.3233 170.524 94.47C170.611 94.5167 170.667 94.58 170.694 94.66C170.721 94.7333 170.724 94.8067 170.704 94.88C170.691 94.9533 170.657 95.02 170.604 95.08C170.551 95.1333 170.484 95.1667 170.404 95.18C170.331 95.1867 170.247 95.1667 170.154 95.12C169.954 94.9933 169.754 94.9033 169.554 94.85C169.361 94.7967 169.167 94.77 168.974 94.77C168.621 94.77 168.354 94.8367 168.174 94.97C168.001 95.0967 167.914 95.27 167.914 95.49C167.914 95.6567 167.967 95.7933 168.074 95.9C168.181 96.0067 168.347 96.0833 168.574 96.13L169.524 96.32C169.957 96.4067 170.284 96.5533 170.504 96.76C170.731 96.9667 170.844 97.2467 170.844 97.6C170.844 98.06 170.661 98.4233 170.294 98.69C169.927 98.9567 169.441 99.09 168.834 99.09ZM172.468 99.06C172.308 99.06 172.184 99.0133 172.098 98.92C172.011 98.82 171.968 98.6833 171.968 98.51V94.61C171.968 94.4367 172.011 94.3033 172.098 94.21C172.184 94.1167 172.308 94.07 172.468 94.07C172.628 94.07 172.751 94.1167 172.838 94.21C172.931 94.3033 172.978 94.4367 172.978 94.61V98.51C172.978 98.6833 172.934 98.82 172.848 98.92C172.761 99.0133 172.634 99.06 172.468 99.06ZM172.468 93.03C172.268 93.03 172.111 92.98 171.998 92.88C171.891 92.78 171.838 92.64 171.838 92.46C171.838 92.2733 171.891 92.1333 171.998 92.04C172.111 91.94 172.268 91.89 172.468 91.89C172.668 91.89 172.821 91.94 172.928 92.04C173.041 92.1333 173.098 92.2733 173.098 92.46C173.098 92.64 173.041 92.78 172.928 92.88C172.821 92.98 172.668 93.03 172.468 93.03ZM174.899 99.07C174.739 99.07 174.616 99.0267 174.529 98.94C174.443 98.8467 174.399 98.72 174.399 98.56V94.56C174.399 94.3933 174.443 94.2667 174.529 94.18C174.616 94.0933 174.736 94.05 174.889 94.05C175.049 94.05 175.169 94.0933 175.249 94.18C175.336 94.2667 175.379 94.3933 175.379 94.56V95.34L175.269 95.16C175.416 94.7867 175.646 94.5067 175.959 94.32C176.273 94.1267 176.633 94.03 177.039 94.03C177.426 94.03 177.746 94.1033 177.999 94.25C178.259 94.39 178.453 94.6067 178.579 94.9C178.706 95.1867 178.769 95.55 178.769 95.99V98.56C178.769 98.72 178.726 98.8467 178.639 98.94C178.553 99.0267 178.429 99.07 178.269 99.07C178.103 99.07 177.976 99.0267 177.889 98.94C177.803 98.8467 177.759 98.72 177.759 98.56V96.05C177.759 95.63 177.676 95.3233 177.509 95.13C177.349 94.9367 177.096 94.84 176.749 94.84C176.343 94.84 176.016 94.9667 175.769 95.22C175.529 95.4733 175.409 95.8133 175.409 96.24V98.56C175.409 98.9 175.239 99.07 174.899 99.07ZM180.661 99.06C180.501 99.06 180.378 99.0133 180.291 98.92C180.205 98.82 180.161 98.6833 180.161 98.51V94.61C180.161 94.4367 180.205 94.3033 180.291 94.21C180.378 94.1167 180.501 94.07 180.661 94.07C180.821 94.07 180.945 94.1167 181.031 94.21C181.125 94.3033 181.171 94.4367 181.171 94.61V98.51C181.171 98.6833 181.128 98.82 181.041 98.92C180.955 99.0133 180.828 99.06 180.661 99.06ZM180.661 93.03C180.461 93.03 180.305 92.98 180.191 92.88C180.085 92.78 180.031 92.64 180.031 92.46C180.031 92.2733 180.085 92.1333 180.191 92.04C180.305 91.94 180.461 91.89 180.661 91.89C180.861 91.89 181.015 91.94 181.121 92.04C181.235 92.1333 181.291 92.2733 181.291 92.46C181.291 92.64 181.235 92.78 181.121 92.88C181.015 92.98 180.861 93.03 180.661 93.03Z" fill="#767676"/>
</svg>
