<svg width="35" height="35" viewBox="0 0 35 35" fill="none" xmlns="http://www.w3.org/2000/svg">
<rect width="35" height="35" rx="10" fill="white"/>
<path fill-rule="evenodd" clip-rule="evenodd" d="M22.5892 15.3303C22.5892 16.3769 22.8659 16.9938 23.4746 17.7047C23.9359 18.2284 24.0833 18.9007 24.0833 19.63C24.0833 20.3585 23.844 21.0501 23.3644 21.6116C22.7367 22.2847 21.8513 22.7145 20.9477 22.7892C19.6383 22.9008 18.3281 22.9948 17.0004 22.9948C15.672 22.9948 14.3625 22.9385 13.0531 22.7892C12.1487 22.7145 11.2634 22.2847 10.6364 21.6116C10.1569 21.0501 9.91667 20.3585 9.91667 19.63C9.91667 18.9007 10.0649 18.2284 10.5254 17.7047C11.1532 16.9938 11.4116 16.3769 11.4116 15.3303V14.9753C11.4116 13.5736 11.7611 12.6571 12.4808 11.7599C13.5509 10.4514 15.2661 9.66667 16.9632 9.66667H17.0377C18.7711 9.66667 20.5419 10.4892 21.5937 11.8539C22.2762 12.7326 22.5892 13.6105 22.5892 14.9753V15.3303ZM14.5614 24.7174C14.5614 24.2977 14.9465 24.1055 15.3027 24.0233C15.7192 23.9351 18.2577 23.9351 18.6743 24.0233C19.0305 24.1055 19.4156 24.2977 19.4156 24.7174C19.3949 25.1169 19.1605 25.4711 18.8367 25.696C18.4168 26.0233 17.924 26.2306 17.4088 26.3053C17.1239 26.3422 16.844 26.3431 16.569 26.3053C16.053 26.2306 15.5602 26.0233 15.1412 25.6951C14.8165 25.4711 14.5821 25.1169 14.5614 24.7174Z" fill="#76B8C2"/>
</svg>
