<svg width="331" height="65" viewBox="0 0 331 65" fill="none" xmlns="http://www.w3.org/2000/svg">
<path d="M118.615 58.126C118.303 58.126 118.057 58.042 117.877 57.874C117.709 57.706 117.625 57.46 117.625 57.136V46.318C117.625 45.994 117.709 45.748 117.877 45.58C118.057 45.4 118.309 45.31 118.633 45.31H125.041C125.305 45.31 125.497 45.376 125.617 45.508C125.749 45.628 125.815 45.808 125.815 46.048C125.815 46.3 125.749 46.492 125.617 46.624C125.497 46.756 125.305 46.822 125.041 46.822H119.497V50.872H124.681C124.921 50.872 125.107 50.938 125.239 51.07C125.383 51.19 125.455 51.37 125.455 51.61C125.455 51.862 125.383 52.054 125.239 52.186C125.107 52.318 124.921 52.384 124.681 52.384H119.497V57.136C119.497 57.796 119.203 58.126 118.615 58.126ZM130.876 58.162C129.988 58.162 129.22 57.976 128.572 57.604C127.936 57.232 127.438 56.704 127.078 56.02C126.718 55.336 126.538 54.532 126.538 53.608C126.538 52.9 126.64 52.27 126.844 51.718C127.048 51.166 127.336 50.692 127.708 50.296C128.092 49.888 128.548 49.582 129.076 49.378C129.616 49.162 130.216 49.054 130.876 49.054C131.752 49.054 132.508 49.24 133.144 49.612C133.792 49.984 134.296 50.512 134.656 51.196C135.016 51.868 135.196 52.672 135.196 53.608C135.196 54.304 135.094 54.934 134.89 55.498C134.686 56.062 134.392 56.542 134.008 56.938C133.636 57.334 133.18 57.64 132.64 57.856C132.112 58.06 131.524 58.162 130.876 58.162ZM130.876 56.758C131.368 56.758 131.8 56.638 132.172 56.398C132.544 56.158 132.832 55.804 133.036 55.336C133.252 54.868 133.36 54.292 133.36 53.608C133.36 52.576 133.132 51.796 132.676 51.268C132.22 50.74 131.62 50.476 130.876 50.476C130.372 50.476 129.934 50.596 129.562 50.836C129.19 51.064 128.896 51.412 128.68 51.88C128.476 52.348 128.374 52.924 128.374 53.608C128.374 54.628 128.602 55.408 129.058 55.948C129.514 56.488 130.12 56.758 130.876 56.758ZM141.054 58.162C140.166 58.162 139.398 57.976 138.75 57.604C138.114 57.232 137.616 56.704 137.256 56.02C136.896 55.336 136.716 54.532 136.716 53.608C136.716 52.9 136.818 52.27 137.022 51.718C137.226 51.166 137.514 50.692 137.886 50.296C138.27 49.888 138.726 49.582 139.254 49.378C139.794 49.162 140.394 49.054 141.054 49.054C141.93 49.054 142.686 49.24 143.322 49.612C143.97 49.984 144.474 50.512 144.834 51.196C145.194 51.868 145.374 52.672 145.374 53.608C145.374 54.304 145.272 54.934 145.068 55.498C144.864 56.062 144.57 56.542 144.186 56.938C143.814 57.334 143.358 57.64 142.818 57.856C142.29 58.06 141.702 58.162 141.054 58.162ZM141.054 56.758C141.546 56.758 141.978 56.638 142.35 56.398C142.722 56.158 143.01 55.804 143.214 55.336C143.43 54.868 143.538 54.292 143.538 53.608C143.538 52.576 143.31 51.796 142.854 51.268C142.398 50.74 141.798 50.476 141.054 50.476C140.55 50.476 140.112 50.596 139.74 50.836C139.368 51.064 139.074 51.412 138.858 51.88C138.654 52.348 138.552 52.924 138.552 53.608C138.552 54.628 138.78 55.408 139.236 55.948C139.692 56.488 140.298 56.758 141.054 56.758ZM150.764 58.162C149.996 58.162 149.318 57.982 148.73 57.622C148.154 57.25 147.704 56.722 147.38 56.038C147.056 55.342 146.894 54.532 146.894 53.608C146.894 52.66 147.056 51.85 147.38 51.178C147.704 50.506 148.154 49.984 148.73 49.612C149.318 49.24 149.996 49.054 150.764 49.054C151.532 49.054 152.192 49.246 152.744 49.63C153.308 50.002 153.686 50.506 153.878 51.142H153.68V46.102C153.68 45.802 153.758 45.574 153.914 45.418C154.07 45.262 154.292 45.184 154.58 45.184C154.868 45.184 155.09 45.262 155.246 45.418C155.414 45.574 155.498 45.802 155.498 46.102V57.208C155.498 57.496 155.42 57.724 155.264 57.892C155.108 58.048 154.886 58.126 154.598 58.126C154.31 58.126 154.088 58.048 153.932 57.892C153.776 57.724 153.698 57.496 153.698 57.208V55.624L153.896 56.02C153.704 56.668 153.326 57.19 152.762 57.586C152.21 57.97 151.544 58.162 150.764 58.162ZM151.232 56.758C151.724 56.758 152.156 56.638 152.528 56.398C152.9 56.158 153.188 55.804 153.392 55.336C153.608 54.868 153.716 54.292 153.716 53.608C153.716 52.576 153.488 51.796 153.032 51.268C152.576 50.74 151.976 50.476 151.232 50.476C150.728 50.476 150.29 50.596 149.918 50.836C149.546 51.064 149.252 51.412 149.036 51.88C148.832 52.348 148.73 52.924 148.73 53.608C148.73 54.628 148.958 55.408 149.414 55.948C149.87 56.488 150.476 56.758 151.232 56.758ZM167.261 58.126C166.997 58.126 166.781 58.06 166.613 57.928C166.457 57.796 166.325 57.592 166.217 57.316L162.347 46.282C162.239 45.97 162.257 45.712 162.401 45.508C162.557 45.292 162.809 45.184 163.157 45.184C163.421 45.184 163.625 45.244 163.769 45.364C163.925 45.484 164.045 45.676 164.129 45.94L167.639 56.272H166.973L170.573 45.976C170.681 45.712 170.807 45.514 170.951 45.382C171.095 45.25 171.287 45.184 171.527 45.184C171.767 45.184 171.953 45.25 172.085 45.382C172.229 45.514 172.355 45.718 172.463 45.994L175.991 56.272H175.397L178.943 45.94C179.027 45.688 179.141 45.502 179.285 45.382C179.441 45.25 179.645 45.184 179.897 45.184C180.209 45.184 180.437 45.292 180.581 45.508C180.737 45.712 180.755 45.97 180.635 46.282L176.747 57.334C176.639 57.598 176.507 57.796 176.351 57.928C176.195 58.06 175.985 58.126 175.721 58.126C175.445 58.126 175.229 58.06 175.073 57.928C174.917 57.796 174.791 57.592 174.695 57.316L171.293 47.578H171.689L168.251 57.334C168.155 57.598 168.029 57.796 167.873 57.928C167.729 58.06 167.525 58.126 167.261 58.126ZM184.483 58.162C183.871 58.162 183.319 58.042 182.827 57.802C182.347 57.562 181.969 57.238 181.693 56.83C181.417 56.422 181.279 55.96 181.279 55.444C181.279 54.796 181.441 54.286 181.765 53.914C182.101 53.53 182.647 53.26 183.403 53.104C184.171 52.936 185.203 52.852 186.499 52.852H187.345V53.968H186.517C185.653 53.968 184.969 54.01 184.465 54.094C183.961 54.178 183.601 54.322 183.385 54.526C183.181 54.718 183.079 54.988 183.079 55.336C183.079 55.792 183.235 56.164 183.547 56.452C183.859 56.728 184.291 56.866 184.843 56.866C185.287 56.866 185.677 56.764 186.013 56.56C186.349 56.344 186.613 56.056 186.805 55.696C187.009 55.336 187.111 54.922 187.111 54.454V52.384C187.111 51.7 186.967 51.208 186.679 50.908C186.391 50.608 185.917 50.458 185.257 50.458C184.873 50.458 184.471 50.506 184.051 50.602C183.643 50.698 183.217 50.86 182.773 51.088C182.569 51.184 182.395 51.214 182.251 51.178C182.107 51.142 181.993 51.064 181.909 50.944C181.825 50.812 181.777 50.674 181.765 50.53C181.765 50.374 181.801 50.224 181.873 50.08C181.957 49.936 182.095 49.828 182.287 49.756C182.815 49.504 183.337 49.324 183.853 49.216C184.369 49.108 184.855 49.054 185.311 49.054C186.115 49.054 186.775 49.18 187.291 49.432C187.819 49.684 188.209 50.068 188.461 50.584C188.713 51.1 188.839 51.766 188.839 52.582V57.208C188.839 57.496 188.767 57.724 188.623 57.892C188.479 58.048 188.269 58.126 187.993 58.126C187.729 58.126 187.519 58.048 187.363 57.892C187.207 57.724 187.129 57.496 187.129 57.208V56.038H187.291C187.195 56.482 187.015 56.866 186.751 57.19C186.499 57.502 186.181 57.742 185.797 57.91C185.413 58.078 184.975 58.162 184.483 58.162ZM194.421 58.162C193.893 58.162 193.347 58.102 192.783 57.982C192.231 57.862 191.721 57.658 191.253 57.37C191.097 57.262 190.989 57.142 190.929 57.01C190.869 56.878 190.845 56.746 190.857 56.614C190.881 56.47 190.935 56.35 191.019 56.254C191.115 56.146 191.229 56.08 191.361 56.056C191.505 56.032 191.655 56.062 191.811 56.146C192.279 56.41 192.729 56.596 193.161 56.704C193.593 56.8 194.019 56.848 194.439 56.848C195.075 56.848 195.555 56.734 195.879 56.506C196.203 56.278 196.365 55.972 196.365 55.588C196.365 55.276 196.257 55.036 196.041 54.868C195.825 54.688 195.501 54.55 195.069 54.454L193.359 54.112C192.615 53.956 192.051 53.68 191.667 53.284C191.283 52.888 191.091 52.384 191.091 51.772C191.091 51.22 191.241 50.74 191.541 50.332C191.841 49.924 192.261 49.612 192.801 49.396C193.341 49.168 193.965 49.054 194.673 49.054C195.201 49.054 195.699 49.12 196.167 49.252C196.635 49.384 197.067 49.582 197.463 49.846C197.619 49.93 197.721 50.044 197.769 50.188C197.817 50.32 197.823 50.452 197.787 50.584C197.763 50.716 197.703 50.836 197.607 50.944C197.511 51.04 197.391 51.1 197.247 51.124C197.115 51.136 196.965 51.1 196.797 51.016C196.437 50.788 196.077 50.626 195.717 50.53C195.369 50.434 195.021 50.386 194.673 50.386C194.037 50.386 193.557 50.506 193.233 50.746C192.921 50.974 192.765 51.286 192.765 51.682C192.765 51.982 192.861 52.228 193.053 52.42C193.245 52.612 193.545 52.75 193.953 52.834L195.663 53.176C196.443 53.332 197.031 53.596 197.427 53.968C197.835 54.34 198.039 54.844 198.039 55.48C198.039 56.308 197.709 56.962 197.049 57.442C196.389 57.922 195.513 58.162 194.421 58.162ZM203.718 58.162C202.998 58.162 202.392 58.036 201.9 57.784C201.408 57.532 201.042 57.16 200.802 56.668C200.562 56.176 200.442 55.576 200.442 54.868V50.62H199.362C199.122 50.62 198.936 50.56 198.804 50.44C198.672 50.308 198.606 50.134 198.606 49.918C198.606 49.69 198.672 49.516 198.804 49.396C198.936 49.276 199.122 49.216 199.362 49.216H200.442V47.362C200.442 47.062 200.52 46.834 200.676 46.678C200.844 46.522 201.072 46.444 201.36 46.444C201.648 46.444 201.87 46.522 202.026 46.678C202.182 46.834 202.26 47.062 202.26 47.362V49.216H204.366C204.606 49.216 204.792 49.276 204.924 49.396C205.056 49.516 205.122 49.69 205.122 49.918C205.122 50.134 205.056 50.308 204.924 50.44C204.792 50.56 204.606 50.62 204.366 50.62H202.26V54.724C202.26 55.36 202.392 55.84 202.656 56.164C202.932 56.488 203.376 56.65 203.988 56.65C204.204 56.65 204.39 56.632 204.546 56.596C204.714 56.548 204.852 56.518 204.96 56.506C205.092 56.506 205.2 56.554 205.284 56.65C205.368 56.734 205.41 56.902 205.41 57.154C205.41 57.334 205.374 57.502 205.302 57.658C205.242 57.814 205.128 57.916 204.96 57.964C204.816 58.012 204.618 58.054 204.366 58.09C204.126 58.138 203.91 58.162 203.718 58.162ZM210.583 58.162C209.623 58.162 208.795 57.982 208.099 57.622C207.415 57.25 206.881 56.728 206.497 56.056C206.125 55.372 205.939 54.562 205.939 53.626C205.939 52.714 206.125 51.916 206.497 51.232C206.869 50.548 207.379 50.014 208.027 49.63C208.675 49.246 209.413 49.054 210.241 49.054C210.853 49.054 211.399 49.156 211.879 49.36C212.359 49.552 212.767 49.84 213.103 50.224C213.451 50.596 213.709 51.052 213.877 51.592C214.057 52.132 214.147 52.738 214.147 53.41C214.147 53.614 214.087 53.77 213.967 53.878C213.847 53.974 213.667 54.022 213.427 54.022H207.379V52.906H212.923L212.617 53.158C212.617 52.558 212.527 52.048 212.347 51.628C212.179 51.208 211.921 50.89 211.573 50.674C211.237 50.446 210.817 50.332 210.313 50.332C209.749 50.332 209.269 50.464 208.873 50.728C208.489 50.992 208.195 51.358 207.991 51.826C207.787 52.294 207.685 52.84 207.685 53.464V53.572C207.685 54.628 207.931 55.426 208.423 55.966C208.927 56.494 209.653 56.758 210.601 56.758C210.961 56.758 211.339 56.71 211.735 56.614C212.143 56.518 212.527 56.356 212.887 56.128C213.091 56.008 213.271 55.954 213.427 55.966C213.595 55.978 213.727 56.032 213.823 56.128C213.931 56.224 213.997 56.344 214.021 56.488C214.045 56.632 214.021 56.782 213.949 56.938C213.877 57.082 213.751 57.214 213.571 57.334C213.163 57.61 212.689 57.82 212.149 57.964C211.609 58.096 211.087 58.162 210.583 58.162Z" fill="#47B392" fill-opacity="0.76"/>
<path d="M111.614 36V15.228H103.226V10.62H125.582V15.228H117.194V36H111.614ZM128.312 36V10.62H145.7V14.976H133.64V20.916H144.908V25.308H133.64V31.644H145.7V36H128.312ZM150.181 36V10.62H154.825L163.393 26.208L171.925 10.62H176.497V36H171.421V20.52L164.869 32.184H161.737L155.221 20.628V36H150.181ZM181.644 36V10.62H199.032V14.976H186.972V20.916H198.24V25.308H186.972V31.644H199.032V36H181.644ZM203.441 36V10.62H207.581L220.253 26.784V10.62H225.437V36H221.333L208.625 19.8V36H203.441Z" fill="#47B392" fill-opacity="0.76"/>
</svg>
